<svg xmlns="http://www.w3.org/2000/svg" width="512" height="512" viewBox="0 0 512 512" version="1.1"><path d="M 310.510 25.175 C 297.091 27.734, 283.169 38.540, 277.236 51 C 270.017 66.163, 270.680 85.072, 279.003 101.404 C 282.912 109.073, 318.588 160.500, 320 160.500 C 321.412 160.500, 357.088 109.073, 360.997 101.404 C 372.307 79.210, 369.364 54.195, 353.585 38.415 C 342.048 26.879, 326.553 22.116, 310.510 25.175 M 308.035 42.202 C 300.556 45.073, 292.990 52.739, 290.154 60.319 C 282.201 81.575, 297.523 104, 320 104 C 337.646 104, 352 89.646, 352 72 C 352 49.469, 329.257 34.055, 308.035 42.202" stroke="none" fill="#e47c6e" fill-rule="evenodd"/><path d="M 420.520 169.250 C 420.291 169.938, 419.346 173.650, 418.420 177.500 C 409.854 213.125, 385.486 251.785, 354 279.701 C 349.325 283.846, 339.762 291.546, 332.750 296.812 L 320 306.386 320 315.019 C 320 322.749, 319.758 323.879, 317.686 325.826 C 315.509 327.871, 314.421 328, 299.420 328 L 283.469 328 271.500 340 L 259.531 352 243.966 352 C 234.102 352, 228.002 351.602, 227.314 350.914 C 226.533 350.133, 221.074 351.104, 207.864 354.372 C 164.854 365.014, 120.643 369.466, 80.500 367.197 L 61.500 366.123 56.469 371.062 C 52.350 375.104, 50.794 376, 47.893 376 C 43.269 376, 40.246 372.818, 39.820 367.503 L 39.500 363.506 31.750 362.439 L 24 361.373 24 396.134 L 24 430.895 30.750 427.697 L 37.500 424.500 253.527 424 L 469.554 423.500 474.518 420.945 C 491.619 412.144, 491.665 387.879, 474.596 379.095 C 470.316 376.892, 468.152 376.532, 457.106 376.185 C 446.076 375.839, 444.219 375.531, 442.250 373.720 L 440 371.651 440 269.826 L 440 168 430.469 168 C 423.733 168, 420.815 168.367, 420.520 169.250" stroke="none" fill="#4d5d7a" fill-rule="evenodd"/><path d="M 313.450 57.407 C 303.361 61.801, 300.978 75.213, 308.882 83.118 C 315.369 89.604, 324.631 89.604, 331.118 83.118 C 343.529 70.706, 329.566 50.387, 313.450 57.407 M 456 231.736 L 456 359.761 465.250 360.168 C 473.029 360.509, 475.573 361.076, 481.250 363.734 L 488 366.895 488 247.497 C 488 164.961, 487.663 126.526, 486.908 123.006 C 484.584 112.171, 475.969 105.384, 463.179 104.312 L 456 103.710 456 231.736 M 41.713 169.422 C 35.473 171.100, 30.121 175.524, 27.004 181.579 L 24.500 186.445 24.500 273.964 L 24.500 361.483 32.250 362.555 L 40 363.627 40 292.048 L 40 220.469 52 208.500 C 63.428 197.102, 64 196.336, 64 192.440 C 64 189.456, 64.627 187.760, 66.314 186.174 C 68.555 184.070, 69.379 184, 92.080 184 L 115.531 184 127.500 196 L 139.469 208 151.560 208 C 168.418 208, 168 207.477, 168 228.580 L 168 244.531 180 256.500 L 192 268.469 192 283.997 L 192 299.526 177.737 313.763 L 163.475 328 143.472 328 L 123.469 328 111.500 340 L 99.531 352 87.489 352 L 75.446 352 68.627 358.872 L 61.808 365.744 66.154 366.333 C 84.962 368.883, 127.871 367.775, 157.663 363.969 C 184.840 360.498, 227.259 350.859, 225.057 348.657 C 224.366 347.966, 224 338.075, 224 320.074 L 224 292.547 231.216 285.283 L 238.431 278.019 235.216 268.208 C 230.453 253.676, 230.300 254.240, 242.232 242.267 L 252.464 232 268 232 L 283.536 232 293.768 242.267 L 304 252.534 304 264.541 L 304 276.547 312 284.500 L 320 292.453 320 299.320 L 320 306.188 325.250 302.450 C 362.483 275.940, 389.422 245.766, 405.555 212.500 C 411.072 201.124, 416.822 185.130, 419.306 174.250 L 420.732 168 378.346 168 L 335.959 168 332.729 172.677 C 326.145 182.213, 324.123 184, 319.920 184 C 316.458 184, 315.620 183.461, 312.037 178.928 C 309.832 176.138, 307.249 172.538, 306.298 170.928 L 304.569 168 175.534 168.067 C 73.636 168.121, 45.493 168.406, 41.713 169.422 M 80 201.661 C 80 202.574, 74.600 208.784, 68 215.460 L 56 227.598 56 287.957 L 56 348.317 62.413 342.159 L 68.827 336 80.615 336 L 92.402 336 104.540 324 L 116.678 312 136.608 312 L 156.538 312 166.269 302.232 L 176 292.464 176 284.031 L 176 275.598 164 263.460 L 152 251.322 152 237.661 L 152 224 142.339 224 L 132.678 224 120.540 212 L 108.402 200 94.201 200 C 81.633 200, 80 200.191, 80 201.661 M 254.500 253 L 249.575 258 252.787 267.802 C 257.391 281.848, 257.399 281.811, 248 291.440 L 240 299.637 240 317.818 L 240 336 246.201 336 L 252.402 336 264.540 324 L 276.678 312 290.339 312 L 304 312 304 305.818 L 304 299.637 296 291.440 L 288 283.244 288 271.341 L 288 259.437 282.221 253.719 L 276.442 248 267.933 248 L 259.425 248 254.500 253 M 41.713 441.422 C 23.276 446.380, 18.522 471.025, 33.762 482.649 C 39.792 487.248, 45.172 488, 72.049 488 L 96 488 96 464 L 96 440 71.250 440.067 C 54.413 440.113, 44.970 440.547, 41.713 441.422" stroke="none" fill="#7bb45c" fill-rule="evenodd"/><path d="M 304 9.543 C 281.240 15.853, 263.115 34.309, 257.395 57 C 256.127 62.031, 255.871 66.438, 256.262 76.500 C 257.091 97.783, 260.324 105.497, 280.370 134 L 292.677 151.500 165.088 152 L 37.500 152.500 30.997 155.582 C 22.667 159.530, 15.530 166.667, 11.582 174.997 L 8.500 181.500 8.500 328 L 8.500 474.500 11.587 481 C 15.509 489.259, 22.644 496.385, 31 500.387 L 37.500 503.500 72.384 503.799 C 107.254 504.098, 107.268 504.097, 109.634 501.874 L 112 499.651 112 469.836 L 112 440.021 293.250 439.761 L 474.500 439.500 481.003 436.418 C 489.333 432.470, 496.470 425.333, 500.418 417.003 L 503.500 410.500 503.500 264 L 503.500 117.500 500.418 110.997 C 496.470 102.667, 489.333 95.530, 481.003 91.582 C 474.801 88.643, 473.813 88.484, 459.664 88.157 C 445.384 87.826, 444.737 87.898, 442.414 90.081 L 440 92.349 440 122.174 L 440 152 393.381 152 L 346.763 152 349.207 148.750 C 356.278 139.348, 374.104 112.838, 376.289 108.475 C 381.905 97.262, 383.496 89.651, 383.498 74 C 383.500 61.830, 383.146 58.375, 381.295 52.500 C 375.465 33.997, 360.286 18.354, 341.242 11.221 C 332.598 7.983, 312.836 7.093, 304 9.543 M 307.919 25.833 C 287.054 31.280, 272 51.044, 272 72.990 C 272 80.169, 274.686 92.456, 277.766 99.372 C 280.596 105.722, 318.437 160.500, 319.995 160.500 C 321.622 160.500, 358.053 107.866, 361.524 100.500 C 365.341 92.400, 368.025 80.602, 367.942 72.292 C 367.723 50.215, 351.997 30.344, 330.959 25.559 C 322.298 23.589, 316.240 23.661, 307.919 25.833 M 310.173 41.424 C 287.771 48.725, 280.652 77.704, 297.196 94.249 C 304.116 101.169, 309.874 103.502, 320 103.490 C 330.240 103.478, 335.710 101.343, 342.249 94.804 C 349.169 87.884, 351.502 82.126, 351.490 72 C 351.483 65.421, 350.992 62.439, 349.320 58.804 C 346.530 52.738, 339.157 45.401, 333.196 42.758 C 327.269 40.130, 316.125 39.484, 310.173 41.424 M 311.922 58.274 C 301.538 65.272, 301.258 77.950, 311.323 85.408 C 315.265 88.328, 324.722 88.345, 328.615 85.438 C 333.862 81.520, 335.500 78.324, 335.500 72 C 335.500 65.440, 333.688 62.115, 328.010 58.250 C 323.508 55.186, 316.488 55.196, 311.922 58.274 M 456 231.868 L 456 360 462.911 360 C 470.665 360, 480.185 362.571, 484.924 365.946 L 488.031 368.158 487.765 244.829 C 487.511 126.696, 487.421 121.353, 485.636 118 C 480.915 109.137, 474.064 104.917, 463.250 104.210 L 456 103.737 456 231.868 M 41.994 168.934 C 35.135 171.021, 29.866 175.426, 26.364 182 C 24.579 185.352, 24.489 190.681, 24.235 308.205 L 23.969 430.909 30.735 427.705 L 37.500 424.500 253.527 424 L 469.554 423.500 474.518 420.945 C 491.619 412.144, 491.665 387.879, 474.596 379.095 C 470.316 376.892, 468.152 376.532, 457.106 376.185 C 446.076 375.839, 444.219 375.531, 442.250 373.720 L 440 371.651 440 269.826 L 440 168 387.705 168 L 335.410 168 330.210 175.480 C 322.140 187.088, 317.860 187.088, 309.790 175.480 L 304.590 168 174.545 168.086 C 103.020 168.133, 43.372 168.515, 41.994 168.934 M 66.455 186.455 C 64.722 188.187, 64 190.011, 64 192.656 C 64 196.102, 63.038 197.375, 52 208.540 L 40 220.678 40 296.165 L 40 371.651 42.314 373.826 C 43.768 375.191, 45.913 376, 48.080 376 C 51.158 376, 52.825 374.703, 63.500 364 L 75.469 352 87.395 352 L 99.322 352 111.460 340 L 123.598 328 143.511 328 L 163.424 328 177.712 313.712 L 192 299.424 192 284.051 L 192 268.678 180 256.540 L 168 244.402 168 228.656 C 168 213.270, 167.944 212.853, 165.545 210.455 C 163.218 208.127, 162.483 208, 151.344 208 L 139.598 208 127.460 196 L 115.322 184 92.115 184 L 68.909 184 66.455 186.455 M 80 201.661 C 80 202.574, 74.600 208.784, 68 215.460 L 56 227.598 56 287.957 L 56 348.317 62.413 342.159 L 68.827 336 80.615 336 L 92.402 336 104.540 324 L 116.678 312 136.608 312 L 156.538 312 166.269 302.232 L 176 292.464 176 284.031 L 176 275.598 164 263.460 L 152 251.322 152 237.661 L 152 224 142.339 224 L 132.678 224 120.540 212 L 108.402 200 94.201 200 C 81.633 200, 80 200.191, 80 201.661 M 242.302 242.302 C 234.758 249.847, 232 253.270, 232 255.091 C 232 256.458, 233.518 262.059, 235.373 267.538 L 238.745 277.500 231.373 285.135 L 224 292.770 224 319.750 C 224 345.531, 224.092 346.847, 226.073 349.365 L 228.145 352 243.838 352 L 259.531 352 271.500 340 L 283.469 328 299.560 328 C 320.982 328, 320 328.958, 320 308.063 L 320 292.756 312 284.560 L 304 276.363 304 264.484 L 304 252.605 293.698 242.302 L 283.395 232 268 232 L 252.605 232 242.302 242.302 M 254.348 253.129 L 249.219 258.257 252.609 268.325 C 254.474 273.862, 256 279.485, 256 280.819 C 256 282.501, 253.549 285.756, 248 291.440 L 240 299.637 240 317.818 L 240 336 246.201 336 L 252.402 336 264.540 324 L 276.678 312 290.339 312 L 304 312 304 305.818 L 304 299.637 296 291.440 L 288 283.244 288 271.341 L 288 259.437 282.221 253.719 L 276.442 248 267.959 248 L 259.476 248 254.348 253.129 M 41.994 440.934 C 31.003 444.278, 24.567 452.795, 24.567 464 C 24.567 473.543, 28.907 480.705, 37.500 485.342 C 41.272 487.377, 43.054 487.518, 68.750 487.809 L 96 488.118 96 464.059 L 96 440 70.250 440.086 C 56.087 440.133, 43.372 440.515, 41.994 440.934" stroke="none" fill="#454d5b" fill-rule="evenodd"/></svg>