<?xml version="1.0" standalone="no"?>
<!DOCTYPE svg PUBLIC "-//W3C//DTD SVG 20010904//EN"
 "http://www.w3.org/TR/2001/REC-SVG-20010904/DTD/svg10.dtd">
<svg version="1.0" xmlns="http://www.w3.org/2000/svg"
 width="512.000000pt" height="803.000000pt" viewBox="0 0 512.000000 803.000000"
 preserveAspectRatio="xMidYMid meet">

<g transform="translate(0.000000,803.000000) scale(0.100000,-0.100000)"
fill="#cc3e44" stroke="none">
<path d="M2320 8020 c-469 -48 -905 -219 -1283 -503 -133 -100 -379 -337 -473
-457 -166 -212 -325 -494 -412 -735 -50 -138 -104 -354 -128 -510 -22 -145
-25 -539 -6 -710 90 -789 411 -1602 1149 -2915 228 -405 1159 -1981 1246
-2109 72 -106 222 -106 294 0 37 54 723 1205 938 1574 981 1681 1352 2559
1457 3450 19 169 16 563 -6 710 -42 273 -118 519 -241 771 -120 245 -271 458
-470 663 -401 414 -897 669 -1465 756 -123 19 -477 28 -600 15z m509 -1199
c574 -112 1019 -570 1116 -1150 25 -150 17 -406 -19 -547 -81 -325 -264 -604
-525 -800 -165 -124 -397 -223 -605 -259 -117 -20 -345 -20 -467 1 -507 85
-944 463 -1097 951 -50 157 -66 260 -66 428 0 228 46 430 140 617 225 448 638
729 1149 782 76 8 279 -5 374 -23z"/>
</g>
</svg>
