<svg xmlns="http://www.w3.org/2000/svg" width="512" height="512" viewBox="0 0 512 512" version="1.1"><path d="M 59.512 10.608 C 40.945 15.116, 23.603 29.474, 15.031 47.436 C 8.585 60.941, 8.949 47.698, 9.237 258.710 L 9.500 450.500 11.818 457 C 19.002 477.149, 34.851 492.998, 55 500.182 L 61.500 502.500 255.500 502.500 L 449.500 502.500 456.500 500.183 C 476.928 493.420, 493.420 476.928, 500.183 456.500 L 502.500 449.500 502.500 255.500 L 502.500 61.500 500.182 55 C 492.998 34.851, 477.149 19.002, 457 11.818 L 450.500 9.500 258 9.327 C 92.597 9.178, 64.657 9.359, 59.512 10.608 M 68.352 24.044 C 56.967 25.549, 44.309 32.395, 36.585 41.224 C 31.733 46.771, 26.767 56.211, 24.791 63.645 C 22.892 70.785, 22.892 441.215, 24.791 448.355 C 29.820 467.270, 44.730 482.180, 63.645 487.209 C 70.785 489.108, 441.215 489.108, 448.355 487.209 C 467.270 482.180, 482.180 467.270, 487.209 448.355 C 489.108 441.215, 489.108 70.785, 487.209 63.645 C 482.323 45.266, 469.471 31.948, 450 25.087 C 445.959 23.663, 426.565 23.487, 260 23.366 C 157.975 23.291, 71.734 23.596, 68.352 24.044 M 134 101.276 C 120.612 105.857, 110.295 114.298, 104.345 125.540 C 97.627 138.233, 97.999 130.585, 98.012 255.932 C 98.021 347.626, 98.282 370.463, 99.363 374.500 C 103.028 388.187, 113.159 401.015, 125.059 407.039 C 136.816 412.989, 136.657 412.975, 194.054 412.988 L 246.607 413 251.793 410.416 C 262.658 405.001, 268.655 394.383, 267.775 382.116 C 267.193 374.016, 264.667 368.791, 258.652 363.247 C 249.990 355.262, 252.084 355.555, 201.250 355.211 L 156 354.905 156 256 L 156 157.095 201.250 156.789 C 252.084 156.445, 249.990 156.738, 258.652 148.753 C 264.667 143.209, 267.193 137.984, 267.775 129.884 C 268.454 120.414, 266.103 113.972, 259.589 107.458 C 250.923 98.792, 252.541 98.996, 192.572 99.026 C 141.400 99.051, 140.388 99.090, 134 101.276 M 143.120 114.105 C 136.208 115.282, 126.911 120.249, 122.517 125.113 C 118.110 129.991, 114.553 137.068, 113.124 143.799 C 111.553 151.207, 111.538 360.694, 113.109 368.201 C 116.447 384.155, 128.461 395.502, 144.680 398.018 C 148.973 398.684, 168.646 398.970, 197.682 398.789 C 242.524 398.508, 243.935 398.441, 246.616 396.438 C 251.363 392.893, 253.167 389.659, 253.167 384.695 C 253.167 378.952, 250.800 374.818, 245.954 372.094 C 242.318 370.051, 241.083 370, 195.048 370 C 146.728 370, 145.199 369.887, 142.282 366.087 C 140.509 363.778, 140.509 148.222, 142.282 145.913 C 145.198 142.116, 146.743 142, 194.619 142 C 239.157 142, 241.562 141.906, 245.456 140.021 C 250.591 137.536, 253.167 133.287, 253.167 127.305 C 253.167 122.341, 251.363 119.107, 246.616 115.562 C 243.926 113.552, 242.648 113.496, 196.178 113.344 C 169.955 113.259, 146.079 113.601, 143.120 114.105 M 312.275 165.594 C 306.156 167.848, 298.702 174.973, 295.926 181.221 C 294.228 185.041, 293.589 188.296, 293.611 193 C 293.656 202.409, 296.324 207.545, 306.643 218.090 L 315.284 226.921 270.892 227.210 L 226.500 227.500 221.362 230.210 C 211.576 235.372, 206 244.733, 206 256 C 206 267.283, 211.177 276.013, 221.141 281.532 L 226.500 284.500 270.892 284.790 L 315.284 285.079 306.643 293.910 C 296.279 304.501, 293.628 309.618, 293.643 319 C 293.669 336.052, 307.638 349.106, 324.417 347.759 C 327.869 347.482, 332.517 346.286, 335.029 345.029 C 338.047 343.520, 350.809 331.530, 374.287 308.147 C 413.433 269.159, 414.176 268.191, 414.176 256.153 C 414.176 243.861, 413.934 243.540, 375.204 204.675 C 350.033 179.417, 339.127 169.141, 335.500 167.269 C 329.213 164.023, 318.613 163.259, 312.275 165.594 M 317 179.704 C 314.159 180.737, 310.044 185.337, 308.924 188.730 C 306.557 195.903, 307.937 198.227, 324.591 215.092 C 333.066 223.675, 340.053 231.553, 340.118 232.599 C 340.348 236.278, 339.874 237.521, 337.393 239.750 L 334.888 242 282.694 242.004 C 232.723 242.007, 230.364 242.090, 227.304 243.956 C 222.683 246.774, 220.615 250.479, 220.615 255.944 C 220.615 259.236, 221.298 261.610, 222.887 263.841 C 227.394 270.171, 225.728 270, 282.895 270 L 334.888 270 337.393 272.250 C 339.874 274.479, 340.348 275.722, 340.118 279.401 C 340.053 280.447, 333.066 288.325, 324.591 296.908 C 307.928 313.783, 306.556 316.094, 308.930 323.288 C 311.485 331.029, 321.360 335.414, 328.316 331.895 C 329.517 331.287, 345.697 315.650, 364.271 297.145 C 391.709 269.809, 398.232 262.797, 399.059 259.750 C 401.220 251.791, 400.798 251.246, 364.271 214.855 C 345.697 196.350, 329.517 180.713, 328.316 180.105 C 326.065 178.966, 319.651 178.739, 317 179.704" stroke="none" fill="#000000" fill-rule="evenodd"/><path d="M 59.512 10.608 C 40.945 15.116, 23.603 29.474, 15.031 47.436 C 8.585 60.941, 8.949 47.698, 9.237 258.710 L 9.500 450.500 11.818 457 C 19.002 477.149, 34.851 492.998, 55 500.182 L 61.500 502.500 255.500 502.500 L 449.500 502.500 456.500 500.183 C 476.928 493.420, 493.420 476.928, 500.183 456.500 L 502.500 449.500 502.500 255.500 L 502.500 61.500 500.182 55 C 492.998 34.851, 477.149 19.002, 457 11.818 L 450.500 9.500 258 9.327 C 92.597 9.178, 64.657 9.359, 59.512 10.608 M 68.352 24.044 C 56.967 25.549, 44.309 32.395, 36.585 41.224 C 31.733 46.771, 26.767 56.211, 24.791 63.645 C 22.892 70.785, 22.892 441.215, 24.791 448.355 C 29.820 467.270, 44.730 482.180, 63.645 487.209 C 70.785 489.108, 441.215 489.108, 448.355 487.209 C 467.270 482.180, 482.180 467.270, 487.209 448.355 C 489.108 441.215, 489.108 70.785, 487.209 63.645 C 482.323 45.266, 469.471 31.948, 450 25.087 C 445.959 23.663, 426.565 23.487, 260 23.366 C 157.975 23.291, 71.734 23.596, 68.352 24.044 M 134 101.276 C 120.612 105.857, 110.295 114.298, 104.345 125.540 C 97.627 138.233, 97.999 130.585, 98.012 255.932 C 98.021 347.626, 98.282 370.463, 99.363 374.500 C 103.028 388.187, 113.159 401.015, 125.059 407.039 C 136.816 412.989, 136.657 412.975, 194.054 412.988 L 246.607 413 251.793 410.416 C 262.658 405.001, 268.655 394.383, 267.775 382.116 C 267.193 374.016, 264.667 368.791, 258.652 363.247 C 249.990 355.262, 252.084 355.555, 201.250 355.211 L 156 354.905 156 256 L 156 157.095 201.250 156.789 C 252.084 156.445, 249.990 156.738, 258.652 148.753 C 264.667 143.209, 267.193 137.984, 267.775 129.884 C 268.454 120.414, 266.103 113.972, 259.589 107.458 C 250.923 98.792, 252.541 98.996, 192.572 99.026 C 141.400 99.051, 140.388 99.090, 134 101.276 M 143.120 114.105 C 136.208 115.282, 126.911 120.249, 122.517 125.113 C 118.110 129.991, 114.553 137.068, 113.124 143.799 C 111.553 151.207, 111.538 360.694, 113.109 368.201 C 116.447 384.155, 128.461 395.502, 144.680 398.018 C 148.973 398.684, 168.646 398.970, 197.682 398.789 C 242.524 398.508, 243.935 398.441, 246.616 396.438 C 251.363 392.893, 253.167 389.659, 253.167 384.695 C 253.167 378.952, 250.800 374.818, 245.954 372.094 C 242.318 370.051, 241.083 370, 195.048 370 C 146.728 370, 145.199 369.887, 142.282 366.087 C 140.509 363.778, 140.509 148.222, 142.282 145.913 C 145.198 142.116, 146.743 142, 194.619 142 C 239.157 142, 241.562 141.906, 245.456 140.021 C 250.591 137.536, 253.167 133.287, 253.167 127.305 C 253.167 122.341, 251.363 119.107, 246.616 115.562 C 243.926 113.552, 242.648 113.496, 196.178 113.344 C 169.955 113.259, 146.079 113.601, 143.120 114.105 M 312.275 165.594 C 306.156 167.848, 298.702 174.973, 295.926 181.221 C 294.228 185.041, 293.589 188.296, 293.611 193 C 293.656 202.409, 296.324 207.545, 306.643 218.090 L 315.284 226.921 270.892 227.210 L 226.500 227.500 221.362 230.210 C 211.576 235.372, 206 244.733, 206 256 C 206 267.283, 211.177 276.013, 221.141 281.532 L 226.500 284.500 270.892 284.790 L 315.284 285.079 306.643 293.910 C 296.279 304.501, 293.628 309.618, 293.643 319 C 293.669 336.052, 307.638 349.106, 324.417 347.759 C 327.869 347.482, 332.517 346.286, 335.029 345.029 C 338.047 343.520, 350.809 331.530, 374.287 308.147 C 413.433 269.159, 414.176 268.191, 414.176 256.153 C 414.176 243.861, 413.934 243.540, 375.204 204.675 C 350.033 179.417, 339.127 169.141, 335.500 167.269 C 329.213 164.023, 318.613 163.259, 312.275 165.594 M 317 179.704 C 314.159 180.737, 310.044 185.337, 308.924 188.730 C 306.557 195.903, 307.937 198.227, 324.591 215.092 C 333.066 223.675, 340.053 231.553, 340.118 232.599 C 340.348 236.278, 339.874 237.521, 337.393 239.750 L 334.888 242 282.694 242.004 C 232.723 242.007, 230.364 242.090, 227.304 243.956 C 222.683 246.774, 220.615 250.479, 220.615 255.944 C 220.615 259.236, 221.298 261.610, 222.887 263.841 C 227.394 270.171, 225.728 270, 282.895 270 L 334.888 270 337.393 272.250 C 339.874 274.479, 340.348 275.722, 340.118 279.401 C 340.053 280.447, 333.066 288.325, 324.591 296.908 C 307.928 313.783, 306.556 316.094, 308.930 323.288 C 311.485 331.029, 321.360 335.414, 328.316 331.895 C 329.517 331.287, 345.697 315.650, 364.271 297.145 C 391.709 269.809, 398.232 262.797, 399.059 259.750 C 401.220 251.791, 400.798 251.246, 364.271 214.855 C 345.697 196.350, 329.517 180.713, 328.316 180.105 C 326.065 178.966, 319.651 178.739, 317 179.704" stroke="none" fill="#f7b268" fill-rule="evenodd"/></svg>