<?xml version="1.0" standalone="no"?>
<!DOCTYPE svg PUBLIC "-//W3C//DTD SVG 20010904//EN"
 "http://www.w3.org/TR/2001/REC-SVG-20010904/DTD/svg10.dtd">
<svg version="1.0" xmlns="http://www.w3.org/2000/svg"
 width="512.000000pt" height="512.000000pt" viewBox="0 0 512.000000 512.000000"
 preserveAspectRatio="xMidYMid meet">

<g transform="translate(0.000000,512.000000) scale(0.100000,-0.100000)"
fill="#ffb86b" stroke="none">
<path d="M1734 4790 c-697 -89 -1248 -603 -1386 -1293 -32 -161 -32 -433 0
-594 201 -1007 1272 -1577 2200 -1171 l94 41 86 -86 86 -86 -42 -45 c-45 -48
-58 -93 -47 -153 5 -33 44 -76 283 -315 239 -239 282 -278 315 -283 60 -11
105 2 153 47 l45 42 282 -282 c305 -303 305 -304 395 -287 32 5 75 44 314 283
239 239 278 282 283 315 17 89 16 89 -287 394 l-282 282 42 45 c45 48 58 93
47 154 -5 32 -44 75 -283 314 -239 239 -282 278 -314 283 -61 11 -106 -2 -154
-47 l-45 -42 -86 86 -86 86 41 94 c91 207 126 384 126 628 0 206 -17 315 -75
493 -182 557 -644 965 -1219 1078 -120 23 -372 33 -486 19z m432 -334 c251
-50 469 -168 655 -355 190 -189 299 -393 356 -661 24 -117 24 -363 0 -480 -58
-273 -180 -495 -374 -680 -517 -494 -1320 -474 -1811 45 -469 495 -466 1267 6
1757 97 101 157 149 271 217 141 85 319 147 486 170 90 13 319 5 411 -13z
m1084 -2331 l45 -45 -128 -128 -127 -127 -47 48 -48 47 125 125 c69 69 127
125 130 125 3 0 26 -20 50 -45z m560 -240 l125 -125 -288 -288 -287 -287 -127
128 -128 127 285 285 c157 157 287 285 290 285 3 0 61 -56 130 -125z m400
-720 l205 -205 -128 -127 -127 -128 -207 207 -208 208 125 125 c69 69 127 125
130 125 3 0 97 -92 210 -205z"/>
<path d="M1785 4313 c-131 -16 -299 -72 -415 -138 -152 -86 -320 -243 -341
-318 -31 -117 80 -228 196 -196 28 8 64 35 122 93 145 142 299 217 488 238
155 17 157 17 196 57 80 80 55 214 -48 257 -30 13 -125 16 -198 7z"/>
<path d="M922 3603 c-62 -30 -90 -97 -113 -271 -20 -152 -5 -214 65 -266 39
-29 133 -29 172 0 55 40 66 66 76 170 5 54 16 125 24 158 25 98 -2 173 -77
211 -37 20 -106 19 -147 -2z"/>
<path d="M2815 3346 c-42 -18 -83 -69 -89 -109 -3 -18 -8 -63 -11 -102 -3 -38
-13 -97 -21 -129 -25 -98 2 -173 77 -211 65 -34 164 -9 203 50 30 45 59 193
60 307 1 115 -7 137 -66 181 -33 25 -113 32 -153 13z"/>
<path d="M2606 2735 c-24 -8 -66 -41 -110 -86 -136 -139 -298 -219 -484 -240
-163 -18 -164 -18 -203 -58 -61 -61 -65 -151 -8 -216 43 -48 84 -59 199 -51
270 17 562 157 740 354 66 73 85 120 74 178 -7 36 -51 97 -83 113 -33 17 -87
20 -125 6z"/>
</g>
</svg>
